<svg xmlns="http://www.w3.org/2000/svg" viewBox="0 0 133.42 135.17"><defs><style>.a{fill:#58595b;}.b,.c{fill:#ed1c24;}.c{stroke:#ed1c24;stroke-miterlimit:10;stroke-width:0.48px;}.d{fill:#fff;}.e{fill:#8dc63f;}</style></defs><title>ChronicDataLogo</title><path class="a" d="M146.15,149.78a7.41,7.41,0,0,1-7.38,7.39h-6.33v-35.6h6.33a7.4,7.4,0,0,1,7.38,7.38ZM143.41,129a4.62,4.62,0,0,0-4.64-4.64h-3.59v30.11h3.59a4.61,4.61,0,0,0,4.64-4.64Z" transform="translate(-83.29 -82.41)"/><path class="a" d="M164.65,157.17h-2.74L160.49,148h-7.23l-1.37,9.13h-2.74l5.43-35.6h4.64Zm-11-11.87h6.38L157,124.63h-.1Z" transform="translate(-83.29 -82.41)"/><path class="a" d="M180.83,124.31h-4.9v32.86h-2.8V124.31h-5v-2.74h12.66Z" transform="translate(-83.29 -82.41)"/><path class="a" d="M199.86,157.17h-2.74L195.69,148h-7.22l-1.37,9.13h-2.75l5.44-35.6h4.64Zm-11-11.87h6.38l-3.11-20.67h-.11Z" transform="translate(-83.29 -82.41)"/><path class="a" d="M133.44,168.91a4.88,4.88,0,0,1-1-2.82v-1.51a4.36,4.36,0,1,1,8.72,0v2.82l-1.74.2v-3a2.62,2.62,0,1,0-5.24,0v1.51a2.83,2.83,0,0,0,.61,1.68l5.33,6.34a5,5,0,0,1,1,2.89v2.18a4.36,4.36,0,1,1-8.72,0v-3.32l1.74-.21v3.53a2.62,2.62,0,0,0,5.24,0V177a3,3,0,0,0-.64-1.75Z" transform="translate(-83.29 -82.41)"/><path class="a" d="M162.54,168.14v-3.56a2.62,2.62,0,1,0-5.23,0v14.6a2.62,2.62,0,0,0,5.23,0v-3.09h1.75v3.09a4.37,4.37,0,0,1-8.73,0v-14.6a4.37,4.37,0,0,1,8.73,0v3.35Z" transform="translate(-83.29 -82.41)"/><path class="b" d="M170.42,162.08a1.86,1.86,0,1,1-1.86-1.86A1.86,1.86,0,0,1,170.42,162.08Z" transform="translate(-83.29 -82.41)"/><path class="a" d="M167.69,183.54V167h1.74v16.55Z" transform="translate(-83.29 -82.41)"/><path class="a" d="M143.82,165.22a4.36,4.36,0,0,1,8.72,0v10.3a4.36,4.36,0,1,1-8.72,0Zm1.74,10.3a2.62,2.62,0,1,0,5.23,0v-10.3a2.62,2.62,0,0,0-5.23,0Z" transform="translate(-83.29 -82.41)"/><path class="a" d="M143.82,181.8h8.72v1.74h-8.72Z" transform="translate(-83.29 -82.41)"/><path class="a" d="M174,162.63v8.7H178v1.77H174v8.69h5.77v1.75h-7.51V160.89h7.24v1.74Z" transform="translate(-83.29 -82.41)"/><path class="a" d="M189.12,162.63H186v20.91h-1.78V162.63h-3.15v-1.74h8.05Z" transform="translate(-83.29 -82.41)"/><path class="a" d="M190,160.89h1.74l3.15,9.56H195l3.16-9.56h1.74l-4.06,12.25v10.4h-1.74v-10.4Z" transform="translate(-83.29 -82.41)"/><path class="a" d="M175.65,96.89h1.95l4.92,15.82h.06V96.89h1.61v20.86h-1.61l-5.25-16.69h-.07v16.69h-1.61Z" transform="translate(-83.29 -82.41)"/><path class="a" d="M198.25,103.56v-3.27a2.41,2.41,0,0,0-4.82,0v13.44a2.41,2.41,0,1,0,4.82,0v-2.84h1.61v2.84a4,4,0,0,1-8,0V100.29a4,4,0,0,1,8,0v3.09Z" transform="translate(-83.29 -82.41)"/><path class="a" d="M138.87,103.56v-3.27a2.42,2.42,0,0,0-4.83,0v13.44a2.42,2.42,0,1,0,4.83,0v-2.84h1.61v2.84a4,4,0,1,1-8,0V100.29a4,4,0,1,1,8,0v3.09Z" transform="translate(-83.29 -82.41)"/><path class="a" d="M151.11,96.89v20.86H149.5v-9.64h-4.82v9.64h-1.61V96.89h1.61v9.61h4.82V96.89Z" transform="translate(-83.29 -82.41)"/><path class="a" d="M162.08,117.75h-1.6v-6.92a2.71,2.71,0,0,0-2.72-2.72h-1.95v9.64H154.2V96.89h3.56a4.34,4.34,0,0,1,4.32,4.33v2.56a4.39,4.39,0,0,1-1.82,3.53,4.4,4.4,0,0,1,1.82,3.52Zm-4.32-11.25a2.7,2.7,0,0,0,2.72-2.72v-2.56a2.7,2.7,0,0,0-2.72-2.72h-1.95v8Z" transform="translate(-83.29 -82.41)"/><path class="a" d="M164.68,100.91a4,4,0,0,1,8,0v9.62a4,4,0,0,1-8,0Zm1.61,9.62a2.41,2.41,0,1,0,4.82,0v-9.62a2.41,2.41,0,0,0-4.82,0Z" transform="translate(-83.29 -82.41)"/><rect class="a" x="81.22" y="33.88" width="8.39" height="1.46"/><rect class="a" x="104.07" y="19.94" width="1.46" height="15.4"/><path class="b" d="M189.94,98.75a1.86,1.86,0,1,1-1.86-1.86A1.86,1.86,0,0,1,189.94,98.75Z" transform="translate(-83.29 -82.41)"/><path class="a" d="M106.52,114.77a3.19,3.19,0,1,1-3.19-3.19A3.19,3.19,0,0,1,106.52,114.77Z" transform="translate(-83.29 -82.41)"/><path class="a" d="M123.33,162.22a3.2,3.2,0,1,1-3.2-3.19A3.19,3.19,0,0,1,123.33,162.22Z" transform="translate(-83.29 -82.41)"/><path class="a" d="M106.81,105.3a1.74,1.74,0,1,1-1.74-1.74A1.74,1.74,0,0,1,106.81,105.3Z" transform="translate(-83.29 -82.41)"/><path class="a" d="M118.2,182.05a1.74,1.74,0,1,1-1.74-1.73A1.74,1.74,0,0,1,118.2,182.05Z" transform="translate(-83.29 -82.41)"/><path class="a" d="M124,173.21a2.67,2.67,0,1,1-2.67-2.67A2.67,2.67,0,0,1,124,173.21Z" transform="translate(-83.29 -82.41)"/><path class="a" d="M110.87,97.14a1.54,1.54,0,1,1-1.54-1.54A1.54,1.54,0,0,1,110.87,97.14Z" transform="translate(-83.29 -82.41)"/><path class="a" d="M118.19,151.39a3.36,3.36,0,1,1-3.36-3.36A3.36,3.36,0,0,1,118.19,151.39Z" transform="translate(-83.29 -82.41)"/><path class="a" d="M109.52,125.55a3.36,3.36,0,1,1-3.36-3.35A3.35,3.35,0,0,1,109.52,125.55Z" transform="translate(-83.29 -82.41)"/><path class="c" d="M115.34,138.46a6.25,6.25,0,1,1-6.25-6.25A6.25,6.25,0,0,1,115.34,138.46Z" transform="translate(-83.29 -82.41)"/><path class="d" d="M113.5,138.46a4.41,4.41,0,1,1-4.41-4.41A4.4,4.4,0,0,1,113.5,138.46Z" transform="translate(-83.29 -82.41)"/><path class="b" d="M111.4,138.46a2.31,2.31,0,1,1-2.31-2.31A2.3,2.3,0,0,1,111.4,138.46Z" transform="translate(-83.29 -82.41)"/><path class="e" d="M197.79,82.41H102.21a19,19,0,0,0-18.92,18.93v76.71A19,19,0,0,0,102.21,197h85.88c4.81,7.28,11.24,13.67,19.95,20.61a64.06,64.06,0,0,1-9.23-20.66,18.93,18.93,0,0,0,17.9-18.88V101.34A19,19,0,0,0,197.79,82.41Zm12.92,95.64A12.94,12.94,0,0,1,197.79,191H102.21a12.94,12.94,0,0,1-12.92-12.93V101.34a12.94,12.94,0,0,1,12.92-12.93h95.58a12.94,12.94,0,0,1,12.92,12.93Z" transform="translate(-83.29 -82.41)"/></svg>